# xmcd CD database file
# Copyright (C) 1993-1998 Ti Kan
# 
# Track frame offsets:
#     183
#     14373
#     27223
#     39310
#     54715
#     68560
#     81498
#     94398
#     107533
#     121315
#     134290
#     145540
#     158830
#     172073
# 
# Disc length: 2488 seconds
# 
# Revision: 1
# Processed by: cddbd v1.4b41PL1 Copyright (c) Steve Scherf et al.
# Submitted via: DiscPlay 4.0.4
# 
DISCID=b709b60e
DTITLE=Muddy Waters - Chicago Blues
DYEAR=1900
DGENRE=
TTITLE0=Rollin Stone
TTITLE1=Louisiana Blues
TTITLE2=Long Distance Call
TTITLE3=Honey Bee
TTITLE4=I Want You To Love Me
TTITLE5=I Just Want To Make Love To You
TTITLE6=I'm Your Hootchie Cootchie Man
TTITLE7=Mannish Boy
TTITLE8=I'm Ready
TTITLE9=Forty Days and Forty Nights
TTITLE10=She's Allright
TTITLE11=Walking Blues
TTITLE12=She Moves Me
TTITLE13=Still A Fool
EXTD=
EXTT0=
EXTT1=
EXTT2=
EXTT3=
EXTT4=
EXTT5=
EXTT6=
EXTT7=
EXTT8=
EXTT9=
EXTT10=
EXTT11=
EXTT12=
EXTT13=
PLAYORDER=
